<mxfile host="Electron" agent="Mozilla/5.0 (Macintosh; Intel Mac OS X 10_15_7) AppleWebKit/537.36 (KHTML, like Gecko) draw.io/27.0.9 Chrome/134.0.6998.205 Electron/35.4.0 Safari/537.36" version="27.0.9">
  <diagram name="Page-1" id="qgbuB44TMR7rJGqlLMrJ">
    <mxGraphModel dx="1588" dy="1013" grid="1" gridSize="10" guides="1" tooltips="1" connect="1" arrows="1" fold="1" page="1" pageScale="1" pageWidth="850" pageHeight="1100" math="0" shadow="0">
      <root>
        <mxCell id="0" />
        <mxCell id="1" parent="0" />
        <mxCell id="JYD-wfhGwTzsFGYquKn4-1" value="" style="rounded=0;whiteSpace=wrap;html=1;strokeColor=light-dark(#006EAF, #7fc7f0);" vertex="1" parent="1">
          <mxGeometry x="140" y="170" width="850" height="440" as="geometry" />
        </mxCell>
        <mxCell id="JYD-wfhGwTzsFGYquKn4-2" value="&lt;font style=&quot;font-size: 35px;&quot;&gt;Data Model &lt;/font&gt;&lt;font style=&quot;font-size: 20px;&quot;&gt;Sales Data Mart ( Star Schema )&lt;/font&gt;" style="rounded=0;whiteSpace=wrap;html=1;strokeColor=none;" vertex="1" parent="1">
          <mxGeometry x="170" y="200" width="490" height="60" as="geometry" />
        </mxCell>
        <mxCell id="JYD-wfhGwTzsFGYquKn4-10" value="&lt;font style=&quot;color: rgb(0, 0, 0);&quot;&gt;gold.dim_customers&lt;/font&gt;" style="rounded=1;whiteSpace=wrap;html=1;fillColor=light-dark(#E3C800,#EEDD5D);" vertex="1" parent="1">
          <mxGeometry x="170" y="300" width="160" height="30" as="geometry" />
        </mxCell>
        <mxCell id="JYD-wfhGwTzsFGYquKn4-13" value="" style="shape=internalStorage;whiteSpace=wrap;html=1;backgroundOutline=1;dx=30;dy=30;strokeColor=light-dark(#000000,#EEDD5E);fillColor=default;align=left;" vertex="1" parent="1">
          <mxGeometry x="170" y="330" width="160" height="210" as="geometry" />
        </mxCell>
        <mxCell id="JYD-wfhGwTzsFGYquKn4-14" value="customer_key" style="text;html=1;align=left;verticalAlign=middle;whiteSpace=wrap;rounded=0;spacing=10;" vertex="1" parent="1">
          <mxGeometry x="200" y="330" width="110" height="30" as="geometry" />
        </mxCell>
        <mxCell id="JYD-wfhGwTzsFGYquKn4-15" value="customer_id&lt;div&gt;customer_number&lt;/div&gt;&lt;div&gt;first_name&lt;/div&gt;&lt;div&gt;last_name&lt;/div&gt;&lt;div&gt;country&lt;/div&gt;&lt;div&gt;marital_status&lt;/div&gt;&lt;div&gt;gender&lt;/div&gt;&lt;div&gt;birthdate&lt;/div&gt;&lt;div&gt;country&lt;/div&gt;" style="text;html=1;align=left;verticalAlign=top;whiteSpace=wrap;rounded=0;spacing=10;spacingTop=0;" vertex="1" parent="1">
          <mxGeometry x="200" y="360" width="130" height="180" as="geometry" />
        </mxCell>
        <mxCell id="JYD-wfhGwTzsFGYquKn4-16" value="PK" style="text;html=1;align=center;verticalAlign=middle;whiteSpace=wrap;rounded=0;" vertex="1" parent="1">
          <mxGeometry x="170" y="330" width="30" height="30" as="geometry" />
        </mxCell>
        <mxCell id="JYD-wfhGwTzsFGYquKn4-17" value="&lt;font style=&quot;color: rgb(0, 0, 0);&quot;&gt;gold.fact_sales&lt;/font&gt;" style="rounded=1;whiteSpace=wrap;html=1;fillColor=light-dark(#006EAF,#7FC7F0);fontColor=#ffffff;strokeColor=light-dark(#006EAF,#7FC7F0);" vertex="1" parent="1">
          <mxGeometry x="480" y="300" width="160" height="30" as="geometry" />
        </mxCell>
        <mxCell id="JYD-wfhGwTzsFGYquKn4-18" value="" style="shape=internalStorage;whiteSpace=wrap;html=1;backgroundOutline=1;dx=30;dy=30;strokeColor=light-dark(#006EAF, #7fc7f0);fillColor=none;align=left;fontColor=#ffffff;" vertex="1" parent="1">
          <mxGeometry x="480" y="330" width="160" height="210" as="geometry" />
        </mxCell>
        <mxCell id="JYD-wfhGwTzsFGYquKn4-19" value="order_number" style="text;html=1;align=left;verticalAlign=middle;whiteSpace=wrap;rounded=0;spacing=10;" vertex="1" parent="1">
          <mxGeometry x="510" y="330" width="110" height="30" as="geometry" />
        </mxCell>
        <mxCell id="JYD-wfhGwTzsFGYquKn4-20" value="product_key&lt;div&gt;customer_key&lt;/div&gt;&lt;div&gt;order_date&lt;/div&gt;&lt;div&gt;shipping_date&lt;/div&gt;&lt;div&gt;due_date&lt;/div&gt;&lt;div&gt;sales_amount&lt;/div&gt;&lt;div&gt;quantity&lt;/div&gt;&lt;div&gt;price&lt;/div&gt;" style="text;html=1;align=left;verticalAlign=top;whiteSpace=wrap;rounded=0;spacing=10;spacingTop=0;fillColor=none;fontColor=#ffffff;strokeColor=light-dark(#006EAF, #7fc7f0);" vertex="1" parent="1">
          <mxGeometry x="510" y="360" width="130" height="180" as="geometry" />
        </mxCell>
        <mxCell id="JYD-wfhGwTzsFGYquKn4-21" value="FK1&lt;div&gt;FK2&lt;br&gt;&lt;div&gt;&lt;br&gt;&lt;/div&gt;&lt;/div&gt;" style="text;html=1;align=center;verticalAlign=middle;whiteSpace=wrap;rounded=0;" vertex="1" parent="1">
          <mxGeometry x="480" y="380" width="30" height="30" as="geometry" />
        </mxCell>
        <mxCell id="JYD-wfhGwTzsFGYquKn4-22" value="&lt;font style=&quot;color: rgb(0, 0, 0);&quot;&gt;gold.dim_products&lt;/font&gt;" style="rounded=1;whiteSpace=wrap;html=1;fillColor=light-dark(#E3C800,#EEDD5D);" vertex="1" parent="1">
          <mxGeometry x="780" y="300" width="160" height="30" as="geometry" />
        </mxCell>
        <mxCell id="JYD-wfhGwTzsFGYquKn4-23" value="" style="shape=internalStorage;whiteSpace=wrap;html=1;backgroundOutline=1;dx=30;dy=30;strokeColor=light-dark(#000000,#EEDD5E);fillColor=default;align=left;" vertex="1" parent="1">
          <mxGeometry x="780" y="330" width="160" height="210" as="geometry" />
        </mxCell>
        <mxCell id="JYD-wfhGwTzsFGYquKn4-24" value="product_key" style="text;html=1;align=left;verticalAlign=middle;whiteSpace=wrap;rounded=0;spacing=10;" vertex="1" parent="1">
          <mxGeometry x="810" y="330" width="110" height="30" as="geometry" />
        </mxCell>
        <mxCell id="JYD-wfhGwTzsFGYquKn4-25" value="product_id&lt;div&gt;product_number&lt;/div&gt;&lt;div&gt;product_name&lt;/div&gt;&lt;div&gt;category_id&lt;/div&gt;&lt;div&gt;category&lt;/div&gt;&lt;div&gt;subcategory&lt;/div&gt;&lt;div&gt;maintenance&lt;/div&gt;&lt;div&gt;cost&lt;/div&gt;&lt;div&gt;product_line&lt;/div&gt;&lt;div&gt;start_date&lt;/div&gt;" style="text;html=1;align=left;verticalAlign=top;whiteSpace=wrap;rounded=0;spacing=10;spacingTop=0;" vertex="1" parent="1">
          <mxGeometry x="810" y="360" width="130" height="180" as="geometry" />
        </mxCell>
        <mxCell id="JYD-wfhGwTzsFGYquKn4-26" value="PK" style="text;html=1;align=center;verticalAlign=middle;whiteSpace=wrap;rounded=0;" vertex="1" parent="1">
          <mxGeometry x="780" y="330" width="30" height="30" as="geometry" />
        </mxCell>
        <mxCell id="JYD-wfhGwTzsFGYquKn4-27" value="" style="edgeStyle=entityRelationEdgeStyle;fontSize=12;html=1;endArrow=ERoneToMany;rounded=0;exitX=1.003;exitY=0.077;exitDx=0;exitDy=0;exitPerimeter=0;entryX=0;entryY=0.5;entryDx=0;entryDy=0;" edge="1" parent="1" source="JYD-wfhGwTzsFGYquKn4-13" target="JYD-wfhGwTzsFGYquKn4-21">
          <mxGeometry width="100" height="100" relative="1" as="geometry">
            <mxPoint x="670" y="520" as="sourcePoint" />
            <mxPoint x="770" y="420" as="targetPoint" />
          </mxGeometry>
        </mxCell>
        <mxCell id="JYD-wfhGwTzsFGYquKn4-28" value="" style="edgeStyle=entityRelationEdgeStyle;fontSize=12;html=1;endArrow=ERoneToMany;rounded=0;exitX=0;exitY=0.5;exitDx=0;exitDy=0;entryX=0.98;entryY=0.111;entryDx=0;entryDy=0;entryPerimeter=0;" edge="1" parent="1" source="JYD-wfhGwTzsFGYquKn4-26" target="JYD-wfhGwTzsFGYquKn4-20">
          <mxGeometry width="100" height="100" relative="1" as="geometry">
            <mxPoint x="670" y="520" as="sourcePoint" />
            <mxPoint x="770" y="420" as="targetPoint" />
          </mxGeometry>
        </mxCell>
      </root>
    </mxGraphModel>
  </diagram>
</mxfile>
